<svg xmlns="http://www.w3.org/2000/svg" width="1280" height="760" viewBox="0 0 1280 760">
<rect width="1280" height="760" fill="#f8fafc"/>
<rect x="20" y="20" width="1240" height="720" rx="24" fill="#e2e8f0"/>
<rect x="40" y="40" width="1200" height="96" rx="16" fill="#0f172a"/>
<text x="70" y="82" font-size="30" font-family="Arial" fill="#ffffff" font-weight="700">Quarterly Access Review Process</text>
<text x="70" y="114" font-size="18" font-family="Arial" fill="#cbd5e1">Standardized IAM governance workflow for review and remediation</text>
<rect x="75" y="250" width="210" height="120" rx="18" fill="#ffffff" stroke="#94a3b8" stroke-width="2"/>
<circle cx="103" cy="278" r="16" fill="#0f172a"/><text x="97" y="284" font-size="16" font-family="Arial" fill="#ffffff" font-weight="700">1</text>
<text x="95" y="308" font-size="18" font-family="Arial" fill="#0f172a">Manager submits access</text>
<text x="95" y="332" font-size="18" font-family="Arial" fill="#0f172a">review request</text>
<line x1="290" y1="310" x2="299" y2="310" stroke="#475569" stroke-width="4"/>
<polygon points="299,310 285,302 285,318" fill="#475569"/>
<rect x="307" y="250" width="210" height="120" rx="18" fill="#ffffff" stroke="#94a3b8" stroke-width="2"/>
<circle cx="335" cy="278" r="16" fill="#0f172a"/><text x="329" y="284" font-size="16" font-family="Arial" fill="#ffffff" font-weight="700">2</text>
<text x="327" y="308" font-size="18" font-family="Arial" fill="#0f172a">System owner exports</text>
<text x="327" y="332" font-size="18" font-family="Arial" fill="#0f172a">current user access</text>
<line x1="522" y1="310" x2="531" y2="310" stroke="#475569" stroke-width="4"/>
<polygon points="531,310 517,302 517,318" fill="#475569"/>
<rect x="539" y="250" width="210" height="120" rx="18" fill="#ffffff" stroke="#94a3b8" stroke-width="2"/>
<circle cx="567" cy="278" r="16" fill="#0f172a"/><text x="561" y="284" font-size="16" font-family="Arial" fill="#ffffff" font-weight="700">3</text>
<text x="559" y="308" font-size="18" font-family="Arial" fill="#0f172a">Reviewer validates</text>
<text x="559" y="332" font-size="18" font-family="Arial" fill="#0f172a">role and least</text>
<text x="559" y="356" font-size="18" font-family="Arial" fill="#0f172a">privilege</text>
<line x1="754" y1="310" x2="763" y2="310" stroke="#475569" stroke-width="4"/>
<polygon points="763,310 749,302 749,318" fill="#475569"/>
<rect x="771" y="250" width="210" height="120" rx="18" fill="#ffffff" stroke="#94a3b8" stroke-width="2"/>
<circle cx="799" cy="278" r="16" fill="#0f172a"/><text x="793" y="284" font-size="16" font-family="Arial" fill="#ffffff" font-weight="700">4</text>
<text x="791" y="308" font-size="18" font-family="Arial" fill="#0f172a">Required changes are</text>
<text x="791" y="332" font-size="18" font-family="Arial" fill="#0f172a">approved and completed</text>
<line x1="986" y1="310" x2="995" y2="310" stroke="#475569" stroke-width="4"/>
<polygon points="995,310 981,302 981,318" fill="#475569"/>
<rect x="1003" y="250" width="210" height="120" rx="18" fill="#ffffff" stroke="#94a3b8" stroke-width="2"/>
<circle cx="1031" cy="278" r="16" fill="#0f172a"/><text x="1025" y="284" font-size="16" font-family="Arial" fill="#ffffff" font-weight="700">5</text>
<text x="1023" y="308" font-size="18" font-family="Arial" fill="#0f172a">Evidence is saved and</text>
<text x="1023" y="332" font-size="18" font-family="Arial" fill="#0f172a">next review scheduled</text>
<text x="60" y="650" font-size="17" font-family="Arial" fill="#475569">Synthetic process view illustrating quarterly access review workflow</text>
</svg>