<svg xmlns="http://www.w3.org/2000/svg" width="1280" height="760" viewBox="0 0 1280 760">
<rect width="1280" height="760" fill="#f8fafc"/>
<rect x="20" y="20" width="1240" height="720" rx="24" fill="#e2e8f0"/>
<rect x="40" y="40" width="1200" height="96" rx="16" fill="#0f172a"/>
<text x="70" y="82" font-size="30" font-family="Arial" fill="#ffffff" font-weight="700">Security Audit Checklist</text>
<text x="70" y="114" font-size="18" font-family="Arial" fill="#cbd5e1">Lightweight technical validation for SaaS administration settings</text>
<rect x="40" y="170" width="520" height="54" fill="#1e293b" stroke="#334155"/>
<text x="52" y="203" font-size="16" font-family="Arial" fill="#ffffff" font-weight="700">Control Check</text>
<rect x="560" y="170" width="150" height="54" fill="#1e293b" stroke="#334155"/>
<text x="572" y="203" font-size="16" font-family="Arial" fill="#ffffff" font-weight="700">Result</text>
<rect x="710" y="170" width="510" height="54" fill="#1e293b" stroke="#334155"/>
<text x="722" y="203" font-size="16" font-family="Arial" fill="#ffffff" font-weight="700">Evidence</text>
<rect x="40" y="224" width="520" height="54" fill="#ffffff" stroke="#cbd5e1"/>
<text x="50" y="256" font-size="14" font-family="Arial" fill="#0f172a">MFA enabled for admins</text>
<rect x="560" y="224" width="150" height="54" fill="#ffffff" stroke="#cbd5e1"/>
<text x="570" y="256" font-size="14" font-family="Arial" fill="#166534">Pass</text>
<rect x="710" y="224" width="510" height="54" fill="#ffffff" stroke="#cbd5e1"/>
<text x="720" y="256" font-size="14" font-family="Arial" fill="#0f172a">Admin console screenshot</text>
<rect x="40" y="278" width="520" height="54" fill="#f1f5f9" stroke="#cbd5e1"/>
<text x="50" y="310" font-size="14" font-family="Arial" fill="#0f172a">Super admin accounts limited</text>
<rect x="560" y="278" width="150" height="54" fill="#f1f5f9" stroke="#cbd5e1"/>
<text x="570" y="310" font-size="14" font-family="Arial" fill="#166534">Pass</text>
<rect x="710" y="278" width="510" height="54" fill="#f1f5f9" stroke="#cbd5e1"/>
<text x="720" y="310" font-size="14" font-family="Arial" fill="#0f172a">Role export</text>
<rect x="40" y="332" width="520" height="54" fill="#ffffff" stroke="#cbd5e1"/>
<text x="50" y="364" font-size="14" font-family="Arial" fill="#0f172a">External sharing reviewed</text>
<rect x="560" y="332" width="150" height="54" fill="#ffffff" stroke="#cbd5e1"/>
<text x="570" y="364" font-size="14" font-family="Arial" fill="#991b1b">Fail</text>
<rect x="710" y="332" width="510" height="54" fill="#ffffff" stroke="#cbd5e1"/>
<text x="720" y="364" font-size="14" font-family="Arial" fill="#0f172a">Needs remediation</text>
<rect x="40" y="386" width="520" height="54" fill="#f1f5f9" stroke="#cbd5e1"/>
<text x="50" y="418" font-size="14" font-family="Arial" fill="#0f172a">Inactive users identified</text>
<rect x="560" y="386" width="150" height="54" fill="#f1f5f9" stroke="#cbd5e1"/>
<text x="570" y="418" font-size="14" font-family="Arial" fill="#166534">Pass</text>
<rect x="710" y="386" width="510" height="54" fill="#f1f5f9" stroke="#cbd5e1"/>
<text x="720" y="418" font-size="14" font-family="Arial" fill="#0f172a">User report</text>
<rect x="40" y="440" width="520" height="54" fill="#ffffff" stroke="#cbd5e1"/>
<text x="50" y="472" font-size="14" font-family="Arial" fill="#0f172a">Audit logs enabled</text>
<rect x="560" y="440" width="150" height="54" fill="#ffffff" stroke="#cbd5e1"/>
<text x="570" y="472" font-size="14" font-family="Arial" fill="#166534">Pass</text>
<rect x="710" y="440" width="510" height="54" fill="#ffffff" stroke="#cbd5e1"/>
<text x="720" y="472" font-size="14" font-family="Arial" fill="#0f172a">Logging settings</text>
<text x="40" y="720" font-size="17" font-family="Arial" fill="#475569">Synthetic screenshot for GitHub README and public portfolio documentation</text>
</svg>