<svg xmlns="http://www.w3.org/2000/svg" width="1280" height="720" viewBox="0 0 1280 720">
<rect width="1280" height="720" fill="#f8fafc"/>
<rect x="30" y="30" width="1220" height="660" rx="24" fill="#e2e8f0"/>
<rect x="50" y="50" width="1180" height="92" rx="16" fill="#0f172a"/>
<text x="80" y="88" font-size="30" font-family="Arial" fill="#ffffff" font-weight="700">Customer Security Questionnaire Pack</text>
<text x="80" y="120" font-size="18" font-family="Arial" fill="#cbd5e1">Customer questions answered with evidence references</text>
<rect x="50" y="165" width="350" height="46" fill="#1e293b" stroke="#334155"/>
<text x="60" y="194" font-size="15" font-family="Arial" fill="#ffffff" font-weight="700">Question</text>
<rect x="400" y="165" width="430" height="46" fill="#1e293b" stroke="#334155"/>
<text x="410" y="194" font-size="15" font-family="Arial" fill="#ffffff" font-weight="700">Response Theme</text>
<rect x="830" y="165" width="400" height="46" fill="#1e293b" stroke="#334155"/>
<text x="840" y="194" font-size="15" font-family="Arial" fill="#ffffff" font-weight="700">Evidence</text>
<rect x="50" y="211" width="350" height="46" fill="#ffffff" stroke="#cbd5e1"/>
<text x="60" y="240" font-size="14" font-family="Arial" fill="#0f172a">Do you enforce MFA?</text>
<rect x="400" y="211" width="430" height="46" fill="#ffffff" stroke="#cbd5e1"/>
<text x="410" y="240" font-size="14" font-family="Arial" fill="#0f172a">MFA required for critical systems</text>
<rect x="830" y="211" width="400" height="46" fill="#ffffff" stroke="#cbd5e1"/>
<text x="840" y="240" font-size="14" font-family="Arial" fill="#0f172a">MFA matrix</text>
<rect x="50" y="257" width="350" height="46" fill="#f1f5f9" stroke="#cbd5e1"/>
<text x="60" y="286" font-size="14" font-family="Arial" fill="#0f172a">How is offboarding handled?</text>
<rect x="400" y="257" width="430" height="46" fill="#f1f5f9" stroke="#cbd5e1"/>
<text x="410" y="286" font-size="14" font-family="Arial" fill="#0f172a">Same-day leaver workflow</text>
<rect x="830" y="257" width="400" height="46" fill="#f1f5f9" stroke="#cbd5e1"/>
<text x="840" y="286" font-size="14" font-family="Arial" fill="#0f172a">JML workflow</text>
<rect x="50" y="303" width="350" height="46" fill="#ffffff" stroke="#cbd5e1"/>
<text x="60" y="332" font-size="14" font-family="Arial" fill="#0f172a">How often is access reviewed?</text>
<rect x="400" y="303" width="430" height="46" fill="#ffffff" stroke="#cbd5e1"/>
<text x="410" y="332" font-size="14" font-family="Arial" fill="#0f172a">Quarterly review</text>
<rect x="830" y="303" width="400" height="46" fill="#ffffff" stroke="#cbd5e1"/>
<text x="840" y="332" font-size="14" font-family="Arial" fill="#0f172a">Access review process</text>
<rect x="50" y="349" width="350" height="46" fill="#f1f5f9" stroke="#cbd5e1"/>
<text x="60" y="378" font-size="14" font-family="Arial" fill="#0f172a">Do you review vendors?</text>
<rect x="400" y="349" width="430" height="46" fill="#f1f5f9" stroke="#cbd5e1"/>
<text x="410" y="378" font-size="14" font-family="Arial" fill="#0f172a">Vendor risk scoring</text>
<rect x="830" y="349" width="400" height="46" fill="#f1f5f9" stroke="#cbd5e1"/>
<text x="840" y="378" font-size="14" font-family="Arial" fill="#0f172a">Vendor scorecard</text>
<rect x="50" y="395" width="350" height="46" fill="#ffffff" stroke="#cbd5e1"/>
<text x="60" y="424" font-size="14" font-family="Arial" fill="#0f172a">Do you have IR process?</text>
<rect x="400" y="395" width="430" height="46" fill="#ffffff" stroke="#cbd5e1"/>
<text x="410" y="424" font-size="14" font-family="Arial" fill="#0f172a">Triage to lessons learned</text>
<rect x="830" y="395" width="400" height="46" fill="#ffffff" stroke="#cbd5e1"/>
<text x="840" y="424" font-size="14" font-family="Arial" fill="#0f172a">IR procedure</text>
<rect x="50" y="441" width="350" height="46" fill="#f1f5f9" stroke="#cbd5e1"/>
<text x="60" y="470" font-size="14" font-family="Arial" fill="#0f172a">How is admin access approved?</text>
<rect x="400" y="441" width="430" height="46" fill="#f1f5f9" stroke="#cbd5e1"/>
<text x="410" y="470" font-size="14" font-family="Arial" fill="#0f172a">Privileged workflow</text>
<rect x="830" y="441" width="400" height="46" fill="#f1f5f9" stroke="#cbd5e1"/>
<text x="840" y="470" font-size="14" font-family="Arial" fill="#0f172a">Approval workflow</text>
<text x="50" y="650" font-size="18" font-family="Arial" fill="#475569">Synthetic operational evidence screenshot for public GitHub documentation</text>
</svg>