<svg xmlns="http://www.w3.org/2000/svg" width="1280" height="760" viewBox="0 0 1280 760">
<rect width="1280" height="760" fill="#f8fafc"/>
<rect x="20" y="20" width="1240" height="720" rx="24" fill="#e2e8f0"/>
<rect x="40" y="40" width="1200" height="96" rx="16" fill="#0f172a"/>
<text x="70" y="82" font-size="30" font-family="Arial" fill="#ffffff" font-weight="700">IAM Review Sheet</text>
<text x="70" y="114" font-size="18" font-family="Arial" fill="#cbd5e1">Quarterly user access review with role, application, decision, and owner validation</text>
<rect x="40" y="170" width="180" height="54" fill="#1e293b" stroke="#334155"/>
<text x="52" y="203" font-size="16" font-family="Arial" fill="#ffffff" font-weight="700">User</text>
<rect x="220" y="170" width="320" height="54" fill="#1e293b" stroke="#334155"/>
<text x="232" y="203" font-size="16" font-family="Arial" fill="#ffffff" font-weight="700">Role</text>
<rect x="540" y="170" width="320" height="54" fill="#1e293b" stroke="#334155"/>
<text x="552" y="203" font-size="16" font-family="Arial" fill="#ffffff" font-weight="700">Application</text>
<rect x="860" y="170" width="340" height="54" fill="#1e293b" stroke="#334155"/>
<text x="872" y="203" font-size="16" font-family="Arial" fill="#ffffff" font-weight="700">Decision</text>
<rect x="40" y="224" width="180" height="54" fill="#ffffff" stroke="#cbd5e1"/>
<text x="50" y="256" font-size="14" font-family="Arial" fill="#0f172a">j.smith</text>
<rect x="220" y="224" width="320" height="54" fill="#ffffff" stroke="#cbd5e1"/>
<text x="230" y="256" font-size="14" font-family="Arial" fill="#0f172a">Billing Specialist</text>
<rect x="540" y="224" width="320" height="54" fill="#ffffff" stroke="#cbd5e1"/>
<text x="550" y="256" font-size="14" font-family="Arial" fill="#0f172a">Google Drive</text>
<rect x="860" y="224" width="340" height="54" fill="#ffffff" stroke="#cbd5e1"/>
<text x="870" y="256" font-size="14" font-family="Arial" fill="#166534">Keep</text>
<rect x="40" y="278" width="180" height="54" fill="#f1f5f9" stroke="#cbd5e1"/>
<text x="50" y="310" font-size="14" font-family="Arial" fill="#0f172a">m.turner</text>
<rect x="220" y="278" width="320" height="54" fill="#f1f5f9" stroke="#cbd5e1"/>
<text x="230" y="310" font-size="14" font-family="Arial" fill="#0f172a">Operations Manager</text>
<rect x="540" y="278" width="320" height="54" fill="#f1f5f9" stroke="#cbd5e1"/>
<text x="550" y="310" font-size="14" font-family="Arial" fill="#0f172a">CRM Admin</text>
<rect x="860" y="278" width="340" height="54" fill="#f1f5f9" stroke="#cbd5e1"/>
<text x="870" y="310" font-size="14" font-family="Arial" fill="#991b1b">Approve</text>
<rect x="40" y="332" width="180" height="54" fill="#ffffff" stroke="#cbd5e1"/>
<text x="50" y="364" font-size="14" font-family="Arial" fill="#0f172a">a.lee</text>
<rect x="220" y="332" width="320" height="54" fill="#ffffff" stroke="#cbd5e1"/>
<text x="230" y="364" font-size="14" font-family="Arial" fill="#0f172a">Former Contractor</text>
<rect x="540" y="332" width="320" height="54" fill="#ffffff" stroke="#cbd5e1"/>
<text x="550" y="364" font-size="14" font-family="Arial" fill="#0f172a">Slack</text>
<rect x="860" y="332" width="340" height="54" fill="#ffffff" stroke="#cbd5e1"/>
<text x="870" y="364" font-size="14" font-family="Arial" fill="#991b1b">Remove</text>
<rect x="40" y="386" width="180" height="54" fill="#f1f5f9" stroke="#cbd5e1"/>
<text x="50" y="418" font-size="14" font-family="Arial" fill="#0f172a">k.davis</text>
<rect x="220" y="386" width="320" height="54" fill="#f1f5f9" stroke="#cbd5e1"/>
<text x="230" y="418" font-size="14" font-family="Arial" fill="#0f172a">Finance Analyst</text>
<rect x="540" y="386" width="320" height="54" fill="#f1f5f9" stroke="#cbd5e1"/>
<text x="550" y="418" font-size="14" font-family="Arial" fill="#0f172a">Billing App</text>
<rect x="860" y="386" width="340" height="54" fill="#f1f5f9" stroke="#cbd5e1"/>
<text x="870" y="418" font-size="14" font-family="Arial" fill="#166534">Keep</text>
<rect x="40" y="440" width="180" height="54" fill="#ffffff" stroke="#cbd5e1"/>
<text x="50" y="472" font-size="14" font-family="Arial" fill="#0f172a">r.patel</text>
<rect x="220" y="440" width="320" height="54" fill="#ffffff" stroke="#cbd5e1"/>
<text x="230" y="472" font-size="14" font-family="Arial" fill="#0f172a">IT Admin</text>
<rect x="540" y="440" width="320" height="54" fill="#ffffff" stroke="#cbd5e1"/>
<text x="550" y="472" font-size="14" font-family="Arial" fill="#0f172a">Admin Console</text>
<rect x="860" y="440" width="340" height="54" fill="#ffffff" stroke="#cbd5e1"/>
<text x="870" y="472" font-size="14" font-family="Arial" fill="#991b1b">Approve</text>
<text x="40" y="720" font-size="17" font-family="Arial" fill="#475569">Synthetic screenshot for GitHub README and public portfolio documentation</text>
</svg>