<svg xmlns="http://www.w3.org/2000/svg" width="1280" height="720" viewBox="0 0 1280 720">
<rect width="1280" height="720" fill="#f8fafc"/>
<rect x="30" y="30" width="1220" height="660" rx="24" fill="#e2e8f0"/>
<rect x="50" y="50" width="1180" height="84" rx="16" fill="#0f172a"/>
<text x="80" y="88" font-size="30" font-family="Arial" fill="#ffffff" font-weight="700">Small Business Security Policy &amp; Procedure Pack</text>
<text x="80" y="118" font-size="18" font-family="Arial" fill="#cbd5e1">GRC Analyst, Security Solutions Consultant, Cybersecurity Analyst</text>
<rect x="50" y="123" width="1180" height="48" rx="10" fill="#ffffff" stroke="#cbd5e1"/><text x="70" y="153" font-size="18" font-family="Arial" fill="#1e3a8a" font-weight="700">Policy</text><text x="190" y="153" font-size="18" font-family="Arial" fill="#0f172a">Acceptable Use Policy</text><rect x="50" y="185" width="1180" height="48" rx="10" fill="#ffffff" stroke="#cbd5e1"/><text x="70" y="215" font-size="18" font-family="Arial" fill="#1e3a8a" font-weight="700">Policy</text><text x="190" y="215" font-size="18" font-family="Arial" fill="#0f172a">Password and MFA Standard</text><rect x="50" y="247" width="1180" height="48" rx="10" fill="#ffffff" stroke="#cbd5e1"/><text x="70" y="277" font-size="18" font-family="Arial" fill="#1e40af" font-weight="700">Procedure</text><text x="190" y="277" font-size="18" font-family="Arial" fill="#0f172a">Incident Response Procedure</text><rect x="50" y="309" width="1180" height="48" rx="10" fill="#ffffff" stroke="#cbd5e1"/><text x="70" y="339" font-size="18" font-family="Arial" fill="#3730a3" font-weight="700">Checklist</text><text x="190" y="339" font-size="18" font-family="Arial" fill="#0f172a">Vendor Risk Review</text><rect x="50" y="371" width="1180" height="48" rx="10" fill="#ffffff" stroke="#cbd5e1"/><text x="70" y="401" font-size="18" font-family="Arial" fill="#155e75" font-weight="700">Guide</text><text x="190" y="401" font-size="18" font-family="Arial" fill="#0f172a">Security Awareness One-Pager</text>
<text x="50" y="650" font-size="18" font-family="Arial" fill="#475569">Synthetic portfolio screenshot for public GitHub documentation</text>
</svg>