<svg xmlns="http://www.w3.org/2000/svg" width="1280" height="720" viewBox="0 0 1280 720">
<rect width="1280" height="720" fill="#f8fafc"/>
<rect x="30" y="30" width="1220" height="660" rx="24" fill="#e2e8f0"/>
<rect x="50" y="50" width="1180" height="92" rx="16" fill="#0f172a"/>
<text x="80" y="88" font-size="30" font-family="Arial" fill="#ffffff" font-weight="700">Risk Register Overview</text>
<text x="80" y="120" font-size="18" font-family="Arial" fill="#cbd5e1">Likelihood x Impact scoring used to prioritize governance gaps</text>
<rect x="50" y="170" width="100" height="52" fill="#1e293b" stroke="#334155"/>
<text x="62" y="203" font-size="16" font-family="Arial" fill="#ffffff" font-weight="700">Risk ID</text>
<rect x="150" y="170" width="590" height="52" fill="#1e293b" stroke="#334155"/>
<text x="162" y="203" font-size="16" font-family="Arial" fill="#ffffff" font-weight="700">Risk</text>
<rect x="740" y="170" width="100" height="52" fill="#1e293b" stroke="#334155"/>
<text x="752" y="203" font-size="16" font-family="Arial" fill="#ffffff" font-weight="700">Score</text>
<rect x="840" y="170" width="220" height="52" fill="#1e293b" stroke="#334155"/>
<text x="852" y="203" font-size="16" font-family="Arial" fill="#ffffff" font-weight="700">Owner</text>
<rect x="1060" y="170" width="170" height="52" fill="#1e293b" stroke="#334155"/>
<text x="1072" y="203" font-size="16" font-family="Arial" fill="#ffffff" font-weight="700">Status</text>
<rect x="50" y="222" width="100" height="52" fill="#ffffff" stroke="#cbd5e1"/>
<text x="62" y="254" font-size="15" font-family="Arial" fill="#991b1b">R-001</text>
<rect x="150" y="222" width="590" height="52" fill="#ffffff" stroke="#cbd5e1"/>
<text x="162" y="254" font-size="15" font-family="Arial" fill="#0f172a">Former employees or contractors reta</text>
<rect x="740" y="222" width="100" height="52" fill="#ffffff" stroke="#cbd5e1"/>
<text x="752" y="254" font-size="15" font-family="Arial" fill="#0f172a">20</text>
<rect x="840" y="222" width="220" height="52" fill="#ffffff" stroke="#cbd5e1"/>
<text x="852" y="254" font-size="15" font-family="Arial" fill="#0f172a">Operations Manager</text>
<rect x="1060" y="222" width="170" height="52" fill="#ffffff" stroke="#cbd5e1"/>
<text x="1072" y="254" font-size="15" font-family="Arial" fill="#0f172a">Open</text>
<rect x="50" y="274" width="100" height="52" fill="#f1f5f9" stroke="#cbd5e1"/>
<text x="62" y="306" font-size="15" font-family="Arial" fill="#991b1b">R-002</text>
<rect x="150" y="274" width="590" height="52" fill="#f1f5f9" stroke="#cbd5e1"/>
<text x="162" y="306" font-size="15" font-family="Arial" fill="#0f172a">Weak passwords or missing MFA lead t</text>
<rect x="740" y="274" width="100" height="52" fill="#f1f5f9" stroke="#cbd5e1"/>
<text x="752" y="306" font-size="15" font-family="Arial" fill="#0f172a">20</text>
<rect x="840" y="274" width="220" height="52" fill="#f1f5f9" stroke="#cbd5e1"/>
<text x="852" y="306" font-size="15" font-family="Arial" fill="#0f172a">IT Admin</text>
<rect x="1060" y="274" width="170" height="52" fill="#f1f5f9" stroke="#cbd5e1"/>
<text x="1072" y="306" font-size="15" font-family="Arial" fill="#0f172a">In Progress</text>
<rect x="50" y="326" width="100" height="52" fill="#ffffff" stroke="#cbd5e1"/>
<text x="62" y="358" font-size="15" font-family="Arial" fill="#991b1b">R-003</text>
<rect x="150" y="326" width="590" height="52" fill="#ffffff" stroke="#cbd5e1"/>
<text x="162" y="358" font-size="15" font-family="Arial" fill="#0f172a">Employees mishandle customer billing</text>
<rect x="740" y="326" width="100" height="52" fill="#ffffff" stroke="#cbd5e1"/>
<text x="752" y="358" font-size="15" font-family="Arial" fill="#0f172a">15</text>
<rect x="840" y="326" width="220" height="52" fill="#ffffff" stroke="#cbd5e1"/>
<text x="852" y="358" font-size="15" font-family="Arial" fill="#0f172a">Compliance Lead</text>
<rect x="1060" y="326" width="170" height="52" fill="#ffffff" stroke="#cbd5e1"/>
<text x="1072" y="358" font-size="15" font-family="Arial" fill="#0f172a">Open</text>
<rect x="50" y="378" width="100" height="52" fill="#f1f5f9" stroke="#cbd5e1"/>
<text x="62" y="410" font-size="15" font-family="Arial" fill="#991b1b">R-004</text>
<rect x="150" y="378" width="590" height="52" fill="#f1f5f9" stroke="#cbd5e1"/>
<text x="162" y="410" font-size="15" font-family="Arial" fill="#0f172a">Security incidents are handled incon</text>
<rect x="740" y="378" width="100" height="52" fill="#f1f5f9" stroke="#cbd5e1"/>
<text x="752" y="410" font-size="15" font-family="Arial" fill="#0f172a">12</text>
<rect x="840" y="378" width="220" height="52" fill="#f1f5f9" stroke="#cbd5e1"/>
<text x="852" y="410" font-size="15" font-family="Arial" fill="#0f172a">Operations Manager</text>
<rect x="1060" y="378" width="170" height="52" fill="#f1f5f9" stroke="#cbd5e1"/>
<text x="1072" y="410" font-size="15" font-family="Arial" fill="#0f172a">In Progress</text>
<rect x="50" y="430" width="100" height="52" fill="#ffffff" stroke="#cbd5e1"/>
<text x="62" y="462" font-size="15" font-family="Arial" fill="#991b1b">R-005</text>
<rect x="150" y="430" width="590" height="52" fill="#ffffff" stroke="#cbd5e1"/>
<text x="162" y="462" font-size="15" font-family="Arial" fill="#0f172a">New SaaS vendors are approved withou</text>
<rect x="740" y="430" width="100" height="52" fill="#ffffff" stroke="#cbd5e1"/>
<text x="752" y="462" font-size="15" font-family="Arial" fill="#0f172a">12</text>
<rect x="840" y="430" width="220" height="52" fill="#ffffff" stroke="#cbd5e1"/>
<text x="852" y="462" font-size="15" font-family="Arial" fill="#0f172a">Department Manager</text>
<rect x="1060" y="430" width="170" height="52" fill="#ffffff" stroke="#cbd5e1"/>
<text x="1072" y="462" font-size="15" font-family="Arial" fill="#0f172a">Open</text>
<rect x="50" y="482" width="100" height="52" fill="#f1f5f9" stroke="#cbd5e1"/>
<text x="62" y="514" font-size="15" font-family="Arial" fill="#991b1b">R-006</text>
<rect x="150" y="482" width="590" height="52" fill="#f1f5f9" stroke="#cbd5e1"/>
<text x="162" y="514" font-size="15" font-family="Arial" fill="#0f172a">Employees fail to report phishing at</text>
<rect x="740" y="482" width="100" height="52" fill="#f1f5f9" stroke="#cbd5e1"/>
<text x="752" y="514" font-size="15" font-family="Arial" fill="#0f172a">9</text>
<rect x="840" y="482" width="220" height="52" fill="#f1f5f9" stroke="#cbd5e1"/>
<text x="852" y="514" font-size="15" font-family="Arial" fill="#0f172a">IT Admin</text>
<rect x="1060" y="482" width="170" height="52" fill="#f1f5f9" stroke="#cbd5e1"/>
<text x="1072" y="514" font-size="15" font-family="Arial" fill="#0f172a">Planned</text>
<text x="50" y="650" font-size="18" font-family="Arial" fill="#475569">Synthetic screenshot for public GitHub portfolio documentation</text>
</svg>