<svg xmlns="http://www.w3.org/2000/svg" width="1280" height="760" viewBox="0 0 1280 760">
<rect width="1280" height="760" fill="#f8fafc"/>
<rect x="20" y="20" width="1240" height="720" rx="24" fill="#e2e8f0"/>
<rect x="40" y="40" width="1200" height="96" rx="16" fill="#0f172a"/>
<text x="70" y="82" font-size="30" font-family="Arial" fill="#ffffff" font-weight="700">Risk Register</text>
<text x="70" y="114" font-size="18" font-family="Arial" fill="#cbd5e1">Prioritized security gaps using likelihood x impact scoring</text>
<rect x="40" y="170" width="110" height="54" fill="#1e293b" stroke="#334155"/>
<text x="52" y="203" font-size="16" font-family="Arial" fill="#ffffff" font-weight="700">Risk ID</text>
<rect x="150" y="170" width="590" height="54" fill="#1e293b" stroke="#334155"/>
<text x="162" y="203" font-size="16" font-family="Arial" fill="#ffffff" font-weight="700">Risk</text>
<rect x="740" y="170" width="100" height="54" fill="#1e293b" stroke="#334155"/>
<text x="752" y="203" font-size="16" font-family="Arial" fill="#ffffff" font-weight="700">Score</text>
<rect x="840" y="170" width="190" height="54" fill="#1e293b" stroke="#334155"/>
<text x="852" y="203" font-size="16" font-family="Arial" fill="#ffffff" font-weight="700">Owner</text>
<rect x="1030" y="170" width="170" height="54" fill="#1e293b" stroke="#334155"/>
<text x="1042" y="203" font-size="16" font-family="Arial" fill="#ffffff" font-weight="700">Status</text>
<rect x="40" y="224" width="110" height="54" fill="#ffffff" stroke="#cbd5e1"/>
<text x="50" y="256" font-size="14" font-family="Arial" fill="#0f172a">R-001</text>
<rect x="150" y="224" width="590" height="54" fill="#ffffff" stroke="#cbd5e1"/>
<text x="160" y="256" font-size="14" font-family="Arial" fill="#0f172a">Former users retain access</text>
<rect x="740" y="224" width="100" height="54" fill="#ffffff" stroke="#cbd5e1"/>
<text x="750" y="256" font-size="14" font-family="Arial" fill="#0f172a">20</text>
<rect x="840" y="224" width="190" height="54" fill="#ffffff" stroke="#cbd5e1"/>
<text x="850" y="256" font-size="14" font-family="Arial" fill="#0f172a">Ops Mgr</text>
<rect x="1030" y="224" width="170" height="54" fill="#ffffff" stroke="#cbd5e1"/>
<text x="1040" y="256" font-size="14" font-family="Arial" fill="#0f172a">Open</text>
<rect x="40" y="278" width="110" height="54" fill="#f1f5f9" stroke="#cbd5e1"/>
<text x="50" y="310" font-size="14" font-family="Arial" fill="#0f172a">R-002</text>
<rect x="150" y="278" width="590" height="54" fill="#f1f5f9" stroke="#cbd5e1"/>
<text x="160" y="310" font-size="14" font-family="Arial" fill="#0f172a">Missing MFA on business apps</text>
<rect x="740" y="278" width="100" height="54" fill="#f1f5f9" stroke="#cbd5e1"/>
<text x="750" y="310" font-size="14" font-family="Arial" fill="#0f172a">20</text>
<rect x="840" y="278" width="190" height="54" fill="#f1f5f9" stroke="#cbd5e1"/>
<text x="850" y="310" font-size="14" font-family="Arial" fill="#0f172a">IT Admin</text>
<rect x="1030" y="278" width="170" height="54" fill="#f1f5f9" stroke="#cbd5e1"/>
<text x="1040" y="310" font-size="14" font-family="Arial" fill="#0f172a">In Progress</text>
<rect x="40" y="332" width="110" height="54" fill="#ffffff" stroke="#cbd5e1"/>
<text x="50" y="364" font-size="14" font-family="Arial" fill="#0f172a">R-003</text>
<rect x="150" y="332" width="590" height="54" fill="#ffffff" stroke="#cbd5e1"/>
<text x="160" y="364" font-size="14" font-family="Arial" fill="#0f172a">Customer data mishandling</text>
<rect x="740" y="332" width="100" height="54" fill="#ffffff" stroke="#cbd5e1"/>
<text x="750" y="364" font-size="14" font-family="Arial" fill="#0f172a">15</text>
<rect x="840" y="332" width="190" height="54" fill="#ffffff" stroke="#cbd5e1"/>
<text x="850" y="364" font-size="14" font-family="Arial" fill="#0f172a">Compliance</text>
<rect x="1030" y="332" width="170" height="54" fill="#ffffff" stroke="#cbd5e1"/>
<text x="1040" y="364" font-size="14" font-family="Arial" fill="#0f172a">Open</text>
<rect x="40" y="386" width="110" height="54" fill="#f1f5f9" stroke="#cbd5e1"/>
<text x="50" y="418" font-size="14" font-family="Arial" fill="#0f172a">R-004</text>
<rect x="150" y="386" width="590" height="54" fill="#f1f5f9" stroke="#cbd5e1"/>
<text x="160" y="418" font-size="14" font-family="Arial" fill="#0f172a">Inconsistent incident response</text>
<rect x="740" y="386" width="100" height="54" fill="#f1f5f9" stroke="#cbd5e1"/>
<text x="750" y="418" font-size="14" font-family="Arial" fill="#0f172a">12</text>
<rect x="840" y="386" width="190" height="54" fill="#f1f5f9" stroke="#cbd5e1"/>
<text x="850" y="418" font-size="14" font-family="Arial" fill="#0f172a">Ops Mgr</text>
<rect x="1030" y="386" width="170" height="54" fill="#f1f5f9" stroke="#cbd5e1"/>
<text x="1040" y="418" font-size="14" font-family="Arial" fill="#0f172a">In Progress</text>
<rect x="40" y="440" width="110" height="54" fill="#ffffff" stroke="#cbd5e1"/>
<text x="50" y="472" font-size="14" font-family="Arial" fill="#0f172a">R-005</text>
<rect x="150" y="440" width="590" height="54" fill="#ffffff" stroke="#cbd5e1"/>
<text x="160" y="472" font-size="14" font-family="Arial" fill="#0f172a">Vendors approved without review</text>
<rect x="740" y="440" width="100" height="54" fill="#ffffff" stroke="#cbd5e1"/>
<text x="750" y="472" font-size="14" font-family="Arial" fill="#0f172a">12</text>
<rect x="840" y="440" width="190" height="54" fill="#ffffff" stroke="#cbd5e1"/>
<text x="850" y="472" font-size="14" font-family="Arial" fill="#0f172a">Dept Owner</text>
<rect x="1030" y="440" width="170" height="54" fill="#ffffff" stroke="#cbd5e1"/>
<text x="1040" y="472" font-size="14" font-family="Arial" fill="#0f172a">Open</text>
<text x="40" y="720" font-size="17" font-family="Arial" fill="#475569">Synthetic screenshot for GitHub README and public portfolio documentation</text>
</svg>