<svg xmlns="http://www.w3.org/2000/svg" width="1280" height="720" viewBox="0 0 1280 720">
<rect width="1280" height="720" fill="#f8fafc"/>
<rect x="30" y="30" width="1220" height="660" rx="24" fill="#e2e8f0"/>
<rect x="50" y="50" width="1180" height="92" rx="16" fill="#0f172a"/>
<text x="80" y="88" font-size="30" font-family="Arial" fill="#ffffff" font-weight="700">Vendor Risk Scorecard</text>
<text x="80" y="120" font-size="18" font-family="Arial" fill="#cbd5e1">Weighted scoring example for a simulated SaaS vendor</text>
<rect x="50" y="170" width="270" height="52" fill="#1e293b" stroke="#334155"/>
<text x="62" y="203" font-size="16" font-family="Arial" fill="#ffffff" font-weight="700">Category</text>
<rect x="320" y="170" width="130" height="52" fill="#1e293b" stroke="#334155"/>
<text x="332" y="203" font-size="16" font-family="Arial" fill="#ffffff" font-weight="700">Weight</text>
<rect x="450" y="170" width="110" height="52" fill="#1e293b" stroke="#334155"/>
<text x="462" y="203" font-size="16" font-family="Arial" fill="#ffffff" font-weight="700">Score</text>
<rect x="560" y="170" width="130" height="52" fill="#1e293b" stroke="#334155"/>
<text x="572" y="203" font-size="16" font-family="Arial" fill="#ffffff" font-weight="700">Weighted</text>
<rect x="690" y="170" width="540" height="52" fill="#1e293b" stroke="#334155"/>
<text x="702" y="203" font-size="16" font-family="Arial" fill="#ffffff" font-weight="700">Notes</text>
<rect x="50" y="222" width="270" height="52" fill="#ffffff" stroke="#cbd5e1"/>
<text x="62" y="254" font-size="15" font-family="Arial" fill="#0f172a">Data sensitivity</text>
<rect x="320" y="222" width="130" height="52" fill="#ffffff" stroke="#cbd5e1"/>
<text x="332" y="254" font-size="15" font-family="Arial" fill="#0f172a">0.2</text>
<rect x="450" y="222" width="110" height="52" fill="#ffffff" stroke="#cbd5e1"/>
<text x="462" y="254" font-size="15" font-family="Arial" fill="#0f172a">4</text>
<rect x="560" y="222" width="130" height="52" fill="#ffffff" stroke="#cbd5e1"/>
<text x="572" y="254" font-size="15" font-family="Arial" fill="#0f172a">0.8</text>
<rect x="690" y="222" width="540" height="52" fill="#ffffff" stroke="#cbd5e1"/>
<text x="702" y="254" font-size="15" font-family="Arial" fill="#0f172a">Vendor may store billing-related doc</text>
<rect x="50" y="274" width="270" height="52" fill="#f1f5f9" stroke="#cbd5e1"/>
<text x="62" y="306" font-size="15" font-family="Arial" fill="#0f172a">Authentication controls</text>
<rect x="320" y="274" width="130" height="52" fill="#f1f5f9" stroke="#cbd5e1"/>
<text x="332" y="306" font-size="15" font-family="Arial" fill="#0f172a">0.2</text>
<rect x="450" y="274" width="110" height="52" fill="#f1f5f9" stroke="#cbd5e1"/>
<text x="462" y="306" font-size="15" font-family="Arial" fill="#0f172a">2</text>
<rect x="560" y="274" width="130" height="52" fill="#f1f5f9" stroke="#cbd5e1"/>
<text x="572" y="306" font-size="15" font-family="Arial" fill="#0f172a">0.4</text>
<rect x="690" y="274" width="540" height="52" fill="#f1f5f9" stroke="#cbd5e1"/>
<text x="702" y="306" font-size="15" font-family="Arial" fill="#0f172a">Supports MFA and SSO</text>
<rect x="50" y="326" width="270" height="52" fill="#ffffff" stroke="#cbd5e1"/>
<text x="62" y="358" font-size="15" font-family="Arial" fill="#0f172a">Security documentation</text>
<rect x="320" y="326" width="130" height="52" fill="#ffffff" stroke="#cbd5e1"/>
<text x="332" y="358" font-size="15" font-family="Arial" fill="#0f172a">0.15</text>
<rect x="450" y="326" width="110" height="52" fill="#ffffff" stroke="#cbd5e1"/>
<text x="462" y="358" font-size="15" font-family="Arial" fill="#0f172a">3</text>
<rect x="560" y="326" width="130" height="52" fill="#ffffff" stroke="#cbd5e1"/>
<text x="572" y="358" font-size="15" font-family="Arial" fill="#0f172a">0.45</text>
<rect x="690" y="326" width="540" height="52" fill="#ffffff" stroke="#cbd5e1"/>
<text x="702" y="358" font-size="15" font-family="Arial" fill="#0f172a">Provides security page but no full r</text>
<rect x="50" y="378" width="270" height="52" fill="#f1f5f9" stroke="#cbd5e1"/>
<text x="62" y="410" font-size="15" font-family="Arial" fill="#0f172a">Incident notification</text>
<rect x="320" y="378" width="130" height="52" fill="#f1f5f9" stroke="#cbd5e1"/>
<text x="332" y="410" font-size="15" font-family="Arial" fill="#0f172a">0.15</text>
<rect x="450" y="378" width="110" height="52" fill="#f1f5f9" stroke="#cbd5e1"/>
<text x="462" y="410" font-size="15" font-family="Arial" fill="#0f172a">3</text>
<rect x="560" y="378" width="130" height="52" fill="#f1f5f9" stroke="#cbd5e1"/>
<text x="572" y="410" font-size="15" font-family="Arial" fill="#0f172a">0.45</text>
<rect x="690" y="378" width="540" height="52" fill="#f1f5f9" stroke="#cbd5e1"/>
<text x="702" y="410" font-size="15" font-family="Arial" fill="#0f172a">Notification language is general</text>
<rect x="50" y="430" width="270" height="52" fill="#ffffff" stroke="#cbd5e1"/>
<text x="62" y="462" font-size="15" font-family="Arial" fill="#0f172a">Data deletion/export</text>
<rect x="320" y="430" width="130" height="52" fill="#ffffff" stroke="#cbd5e1"/>
<text x="332" y="462" font-size="15" font-family="Arial" fill="#0f172a">0.1</text>
<rect x="450" y="430" width="110" height="52" fill="#ffffff" stroke="#cbd5e1"/>
<text x="462" y="462" font-size="15" font-family="Arial" fill="#0f172a">2</text>
<rect x="560" y="430" width="130" height="52" fill="#ffffff" stroke="#cbd5e1"/>
<text x="572" y="462" font-size="15" font-family="Arial" fill="#0f172a">0.2</text>
<rect x="690" y="430" width="540" height="52" fill="#ffffff" stroke="#cbd5e1"/>
<text x="702" y="462" font-size="15" font-family="Arial" fill="#0f172a">Supports export and deletion request</text>
<rect x="50" y="482" width="270" height="52" fill="#f1f5f9" stroke="#cbd5e1"/>
<text x="62" y="514" font-size="15" font-family="Arial" fill="#0f172a">Subprocessors</text>
<rect x="320" y="482" width="130" height="52" fill="#f1f5f9" stroke="#cbd5e1"/>
<text x="332" y="514" font-size="15" font-family="Arial" fill="#0f172a">0.1</text>
<rect x="450" y="482" width="110" height="52" fill="#f1f5f9" stroke="#cbd5e1"/>
<text x="462" y="514" font-size="15" font-family="Arial" fill="#0f172a">3</text>
<rect x="560" y="482" width="130" height="52" fill="#f1f5f9" stroke="#cbd5e1"/>
<text x="572" y="514" font-size="15" font-family="Arial" fill="#0f172a">0.3</text>
<rect x="690" y="482" width="540" height="52" fill="#f1f5f9" stroke="#cbd5e1"/>
<text x="702" y="514" font-size="15" font-family="Arial" fill="#0f172a">Subprocessor list exists but needs r</text>
<rect x="50" y="534" width="270" height="52" fill="#ffffff" stroke="#cbd5e1"/>
<text x="62" y="566" font-size="15" font-family="Arial" fill="#0f172a">Business criticality</text>
<rect x="320" y="534" width="130" height="52" fill="#ffffff" stroke="#cbd5e1"/>
<text x="332" y="566" font-size="15" font-family="Arial" fill="#0f172a">0.1</text>
<rect x="450" y="534" width="110" height="52" fill="#ffffff" stroke="#cbd5e1"/>
<text x="462" y="566" font-size="15" font-family="Arial" fill="#0f172a">3</text>
<rect x="560" y="534" width="130" height="52" fill="#ffffff" stroke="#cbd5e1"/>
<text x="572" y="566" font-size="15" font-family="Arial" fill="#0f172a">0.3</text>
<rect x="690" y="534" width="540" height="52" fill="#ffffff" stroke="#cbd5e1"/>
<text x="702" y="566" font-size="15" font-family="Arial" fill="#0f172a">Useful workflow but not mission-crit</text>
<text x="50" y="650" font-size="18" font-family="Arial" fill="#475569">Synthetic screenshot for public GitHub portfolio documentation</text>
</svg>