<svg xmlns="http://www.w3.org/2000/svg" width="1280" height="760" viewBox="0 0 1280 760">
<rect width="1280" height="760" fill="#f8fafc"/>
<rect x="20" y="20" width="1240" height="720" rx="24" fill="#e2e8f0"/>
<rect x="40" y="40" width="1200" height="96" rx="16" fill="#0f172a"/>
<text x="70" y="82" font-size="30" font-family="Arial" fill="#ffffff" font-weight="700">Vendor Risk Scorecard</text>
<text x="70" y="114" font-size="18" font-family="Arial" fill="#cbd5e1">Weighted scoring example for a SaaS vendor review</text>
<rect x="40" y="170" width="280" height="54" fill="#1e293b" stroke="#334155"/>
<text x="52" y="203" font-size="16" font-family="Arial" fill="#ffffff" font-weight="700">Category</text>
<rect x="320" y="170" width="110" height="54" fill="#1e293b" stroke="#334155"/>
<text x="332" y="203" font-size="16" font-family="Arial" fill="#ffffff" font-weight="700">Weight</text>
<rect x="430" y="170" width="100" height="54" fill="#1e293b" stroke="#334155"/>
<text x="442" y="203" font-size="16" font-family="Arial" fill="#ffffff" font-weight="700">Score</text>
<rect x="530" y="170" width="120" height="54" fill="#1e293b" stroke="#334155"/>
<text x="542" y="203" font-size="16" font-family="Arial" fill="#ffffff" font-weight="700">Weighted</text>
<rect x="650" y="170" width="550" height="54" fill="#1e293b" stroke="#334155"/>
<text x="662" y="203" font-size="16" font-family="Arial" fill="#ffffff" font-weight="700">Notes</text>
<rect x="40" y="224" width="280" height="54" fill="#ffffff" stroke="#cbd5e1"/>
<text x="50" y="256" font-size="14" font-family="Arial" fill="#0f172a">Data sensitivity</text>
<rect x="320" y="224" width="110" height="54" fill="#ffffff" stroke="#cbd5e1"/>
<text x="330" y="256" font-size="14" font-family="Arial" fill="#0f172a">20%</text>
<rect x="430" y="224" width="100" height="54" fill="#ffffff" stroke="#cbd5e1"/>
<text x="440" y="256" font-size="14" font-family="Arial" fill="#0f172a">4</text>
<rect x="530" y="224" width="120" height="54" fill="#ffffff" stroke="#cbd5e1"/>
<text x="540" y="256" font-size="14" font-family="Arial" fill="#0f172a">0.80</text>
<rect x="650" y="224" width="550" height="54" fill="#ffffff" stroke="#cbd5e1"/>
<text x="660" y="256" font-size="14" font-family="Arial" fill="#0f172a">Billing documents involved</text>
<rect x="40" y="278" width="280" height="54" fill="#f1f5f9" stroke="#cbd5e1"/>
<text x="50" y="310" font-size="14" font-family="Arial" fill="#0f172a">Authentication controls</text>
<rect x="320" y="278" width="110" height="54" fill="#f1f5f9" stroke="#cbd5e1"/>
<text x="330" y="310" font-size="14" font-family="Arial" fill="#0f172a">20%</text>
<rect x="430" y="278" width="100" height="54" fill="#f1f5f9" stroke="#cbd5e1"/>
<text x="440" y="310" font-size="14" font-family="Arial" fill="#0f172a">2</text>
<rect x="530" y="278" width="120" height="54" fill="#f1f5f9" stroke="#cbd5e1"/>
<text x="540" y="310" font-size="14" font-family="Arial" fill="#0f172a">0.40</text>
<rect x="650" y="278" width="550" height="54" fill="#f1f5f9" stroke="#cbd5e1"/>
<text x="660" y="310" font-size="14" font-family="Arial" fill="#0f172a">MFA and SSO supported</text>
<rect x="40" y="332" width="280" height="54" fill="#ffffff" stroke="#cbd5e1"/>
<text x="50" y="364" font-size="14" font-family="Arial" fill="#0f172a">Security documentation</text>
<rect x="320" y="332" width="110" height="54" fill="#ffffff" stroke="#cbd5e1"/>
<text x="330" y="364" font-size="14" font-family="Arial" fill="#0f172a">15%</text>
<rect x="430" y="332" width="100" height="54" fill="#ffffff" stroke="#cbd5e1"/>
<text x="440" y="364" font-size="14" font-family="Arial" fill="#0f172a">3</text>
<rect x="530" y="332" width="120" height="54" fill="#ffffff" stroke="#cbd5e1"/>
<text x="540" y="364" font-size="14" font-family="Arial" fill="#0f172a">0.45</text>
<rect x="650" y="332" width="550" height="54" fill="#ffffff" stroke="#cbd5e1"/>
<text x="660" y="364" font-size="14" font-family="Arial" fill="#0f172a">Basic evidence available</text>
<rect x="40" y="386" width="280" height="54" fill="#f1f5f9" stroke="#cbd5e1"/>
<text x="50" y="418" font-size="14" font-family="Arial" fill="#0f172a">Incident notification</text>
<rect x="320" y="386" width="110" height="54" fill="#f1f5f9" stroke="#cbd5e1"/>
<text x="330" y="418" font-size="14" font-family="Arial" fill="#0f172a">15%</text>
<rect x="430" y="386" width="100" height="54" fill="#f1f5f9" stroke="#cbd5e1"/>
<text x="440" y="418" font-size="14" font-family="Arial" fill="#0f172a">3</text>
<rect x="530" y="386" width="120" height="54" fill="#f1f5f9" stroke="#cbd5e1"/>
<text x="540" y="418" font-size="14" font-family="Arial" fill="#0f172a">0.45</text>
<rect x="650" y="386" width="550" height="54" fill="#f1f5f9" stroke="#cbd5e1"/>
<text x="660" y="418" font-size="14" font-family="Arial" fill="#0f172a">General language only</text>
<rect x="40" y="440" width="280" height="54" fill="#ffffff" stroke="#cbd5e1"/>
<text x="50" y="472" font-size="14" font-family="Arial" fill="#0f172a">Data deletion/export</text>
<rect x="320" y="440" width="110" height="54" fill="#ffffff" stroke="#cbd5e1"/>
<text x="330" y="472" font-size="14" font-family="Arial" fill="#0f172a">10%</text>
<rect x="430" y="440" width="100" height="54" fill="#ffffff" stroke="#cbd5e1"/>
<text x="440" y="472" font-size="14" font-family="Arial" fill="#0f172a">2</text>
<rect x="530" y="440" width="120" height="54" fill="#ffffff" stroke="#cbd5e1"/>
<text x="540" y="472" font-size="14" font-family="Arial" fill="#0f172a">0.20</text>
<rect x="650" y="440" width="550" height="54" fill="#ffffff" stroke="#cbd5e1"/>
<text x="660" y="472" font-size="14" font-family="Arial" fill="#0f172a">Documented</text>
<text x="40" y="720" font-size="17" font-family="Arial" fill="#475569">Synthetic screenshot for GitHub README and public portfolio documentation</text>
</svg>